<svg enableBackground="new 0 0 512 512" fill="currentColor" viewBox="0 0 512 512" xmlns="http://www.w3.org/2000/svg"><g>
<path fill="#ef4444" d="m373.615 74.2c-20.951-43.835-65.794-74.2-117.615-74.2-51.822 0-96.666 30.367-117.617 74.203-65.262 7.31-115.536 62.887-115.536 129.116 0 43.174 21.558 83.518 57.67 107.922 8.916 6.022 11.875 8.751 13.192 12.166 1.744 4.517 1.736 12.762 1.723 26.437l.028 62.105v76.7c0 12.876 10.488 23.351 23.38 23.351h274.318c12.892 0 23.38-10.475 23.38-23.351v-76.7l.028-62.119c-.013-13.661-.021-21.906 1.723-26.423 1.317-3.415 4.276-6.143 13.194-12.167 36.11-24.403 57.668-64.748 57.668-107.921.002-66.238-50.274-121.821-115.536-129.119zm22.925 414.449c0 1.816-1.548 3.351-3.38 3.351h-274.319c-1.833 0-3.38-1.535-3.38-3.351v-66.704h281.079zm23.749-193.981c-23.029 15.555-23.751 22.248-23.721 55.167l-.024 52.11h-55.078l18.507-137.854c.735-5.474-3.107-10.507-8.581-11.242-5.478-.736-10.507 3.107-11.242 8.581l-18.864 140.515h-55.286v-188.96c0-5.523-4.477-10-10-10s-10 4.477-10 10v188.96h-55.287l-18.864-140.515c-.735-5.475-5.772-9.315-11.242-8.581-5.474.735-9.315 5.768-8.581 11.242l18.507 137.854h-55.078l-.024-52.096c.03-32.933-.692-39.625-23.719-55.179-30.599-20.679-48.866-54.829-48.866-91.351 0-52.515 37.368-97.113 87.522-107.599-2.99 10.914-4.596 22.392-4.596 34.24 0 5.523 4.477 10 10 10s10-4.477 10-10c.001-60.632 49.449-109.96 110.228-109.96s110.227 49.328 110.227 109.96c0 5.523 4.477 10 10 10s10-4.477 10-10c0-11.849-1.606-23.329-4.597-34.245 50.153 10.477 87.524 55.08 87.524 107.604-.001 36.522-18.268 70.672-48.865 91.349z"/>
<path fill="#ef4444" d="m301.114 446.958h-90.228c-5.523 0-10 4.477-10 10s4.477 10 10 10h90.228c5.523 0 10-4.477 10-10s-4.477-10-10-10z"/></g>
</svg>